<?xml version="1.0" encoding="utf-8"?>
<!-- Generator: Adobe Illustrator 16.0.0, SVG Export Plug-In . SVG Version: 6.00 Build 0)  -->
<!DOCTYPE svg PUBLIC "-//W3C//DTD SVG 1.1//EN" "http://www.w3.org/Graphics/SVG/1.1/DTD/svg11.dtd" [
	<!ENTITY ns_extend "http://ns.adobe.com/Extensibility/1.0/">
	<!ENTITY ns_ai "http://ns.adobe.com/AdobeIllustrator/10.0/">
	<!ENTITY ns_graphs "http://ns.adobe.com/Graphs/1.0/">
	<!ENTITY ns_vars "http://ns.adobe.com/Variables/1.0/">
	<!ENTITY ns_imrep "http://ns.adobe.com/ImageReplacement/1.0/">
	<!ENTITY ns_sfw "http://ns.adobe.com/SaveForWeb/1.0/">
	<!ENTITY ns_custom "http://ns.adobe.com/GenericCustomNamespace/1.0/">
	<!ENTITY ns_adobe_xpath "http://ns.adobe.com/XPath/1.0/">
]>
<svg version="1.1" id="Capa_1" xmlns:x="&ns_extend;" xmlns:i="&ns_ai;" xmlns:graph="&ns_graphs;"
	 xmlns="http://www.w3.org/2000/svg" xmlns:xlink="http://www.w3.org/1999/xlink" x="0px" y="0px" width="500px" height="500px"
	 viewBox="0 0 500 500" enable-background="new 0 0 500 500" xml:space="preserve">
<metadata>
	<sfw  xmlns="&ns_sfw;">
		<slices></slices>
		<sliceSourceBounds  width="538" height="268.996" x="-20" y="109.502" bottomLeftOrigin="true"></sliceSourceBounds>
	</sfw>
</metadata>
<g>
	<defs>
		<rect id="SVGID_1_" x="-20" y="121.502" width="538" height="268.996"/>
	</defs>
	<clipPath id="SVGID_2_">
		<use xlink:href="#SVGID_1_"  overflow="visible"/>
	</clipPath>
	<path clip-path="url(#SVGID_2_)" fill="#FFFFFF" d="M9.443,318.264c-4.751-0.005-6.887-3.48-4.747-7.723l56.63-112.204
		c2.141-4.243,7.781-7.71,12.532-7.707l420.068,0.364c4.751,0.003,6.96,3.513,4.908,7.798l-53.754,112.215
		c-2.054,4.287-7.621,7.789-12.373,7.782L9.443,318.264z"/>
	<path clip-path="url(#SVGID_2_)" fill="#E30613" d="M179.035,296.014l11.071-21.151h27.674l-11.069,21.151h-6.92l4.151-7.931
		h-13.836l-4.152,7.931H179.035z M206.711,282.795l1.383-2.644h-13.837l-1.384,2.644H206.711z"/>
	<polygon clip-path="url(#SVGID_2_)" fill="#E30613" points="219.985,296.014 228.288,280.151 217.91,280.151 220.678,274.863 
		248.352,274.863 245.586,280.151 235.206,280.151 226.905,296.014 	"/>
	<polygon clip-path="url(#SVGID_2_)" fill="#E30613" points="240.179,296.014 251.25,274.863 258.168,274.863 249.865,290.727 
		270.62,290.727 267.854,296.014 	"/>
	<polygon clip-path="url(#SVGID_2_)" fill="#E30613" points="270.751,296.014 281.822,274.863 309.495,274.863 306.728,280.151 
		285.972,280.151 284.588,282.795 305.344,282.795 302.577,288.083 281.822,288.083 280.438,290.727 301.192,290.727 
		298.426,296.014 	"/>
	<polygon clip-path="url(#SVGID_2_)" fill="#E30613" points="311.701,296.014 320.002,280.151 309.624,280.151 312.393,274.863 
		340.067,274.863 337.301,280.151 326.921,280.151 318.618,296.014 	"/>
	<polygon clip-path="url(#SVGID_2_)" fill="#E30613" points="331.894,296.014 342.965,274.863 349.884,274.863 338.813,296.014 	"/>
	<polygon clip-path="url(#SVGID_2_)" fill="#E30613" points="341.71,296.014 344.479,290.727 365.234,290.727 366.618,288.083 
		345.862,288.083 352.781,274.863 380.455,274.863 377.688,280.151 356.931,280.151 355.548,282.795 376.306,282.795 
		369.386,296.014 	"/>
	<polygon clip-path="url(#SVGID_2_)" fill="#E30613" points="372.282,296.014 383.352,274.863 411.027,274.863 399.957,296.014 
		393.038,296.014 401.34,280.151 397.881,280.151 389.579,296.014 382.66,296.014 390.962,280.151 387.504,280.151 379.2,296.014 	
		"/>
	<path clip-path="url(#SVGID_2_)" fill="#E30613" d="M402.854,296.014l11.07-21.151h27.674l-11.067,21.151H402.854z
		 M426.377,290.727l5.534-10.577h-13.836l-5.535,10.577H426.377z"/>
	<polygon clip-path="url(#SVGID_2_)" fill="#E30613" points="266.136,270.571 222.693,228.467 251.655,228.467 254.551,222.853 
		225.589,222.853 208.212,256.536 193.73,256.536 216.901,211.626 274.826,211.626 260.344,239.694 251.655,239.694 
		283.513,270.571 	"/>
	<path clip-path="url(#SVGID_2_)" fill="#E30613" d="M257.718,256.536l14.482-28.069h57.924l-5.793,11.228h-43.443l-8.688,16.842
		H257.718z M275.097,222.853l5.792-11.227h57.925l-5.792,11.227H275.097z"/>
	<path clip-path="url(#SVGID_2_)" fill="#E30613" d="M321.708,256.536l5.792-11.228h57.924l-5.792,11.228H321.708z M330.396,239.694
		l5.792-11.228h57.925l-5.793,11.228H330.396z M339.085,222.853l5.793-11.227h57.924l-5.793,11.227H339.085z"/>
	<path clip-path="url(#SVGID_2_)" fill="#E30613" d="M385.696,256.536l23.17-44.91h57.924l-23.17,44.91h-14.48l8.688-16.842h-28.962
		l-8.688,16.842H385.696z M443.62,228.467l2.897-5.614h-28.963l-2.898,5.614H443.62z"/>
</g>
<g>
	<defs>
		<polygon id="SVGID_3_" points="151.945,267.999 179.273,267.999 150.643,241.85 134.998,241.841 		"/>
	</defs>
	<clipPath id="SVGID_4_">
		<use xlink:href="#SVGID_3_"  overflow="visible"/>
	</clipPath>
	
		<linearGradient id="SVGID_5_" gradientUnits="userSpaceOnUse" x1="-0.1235" y1="500.5498" x2="0.8259" y2="500.5498" gradientTransform="matrix(185.6342 0 0 -185.6342 55.375 93174.2109)">
		<stop  offset="0" style="stop-color:#FAD323"/>
		<stop  offset="0.415" style="stop-color:#DF0914"/>
		<stop  offset="1" style="stop-color:#EC7C02"/>
	</linearGradient>
	<rect x="134.998" y="241.841" clip-path="url(#SVGID_4_)" fill="url(#SVGID_5_)" width="44.275" height="26.158"/>
</g>
<g>
	<defs>
		<polygon id="SVGID_6_" points="81.196,238.789 92.87,238.789 102.23,212.025 		"/>
	</defs>
	<clipPath id="SVGID_7_">
		<use xlink:href="#SVGID_6_"  overflow="visible"/>
	</clipPath>
	
		<linearGradient id="SVGID_8_" gradientUnits="userSpaceOnUse" x1="-0.1187" y1="500.5254" x2="0.8307" y2="500.5254" gradientTransform="matrix(191.7496 0 0 -191.7496 53.625 96200.7813)">
		<stop  offset="0" style="stop-color:#FAD323"/>
		<stop  offset="0.415" style="stop-color:#DF0914"/>
		<stop  offset="1" style="stop-color:#EC7C02"/>
	</linearGradient>
	<rect x="81.196" y="212.025" clip-path="url(#SVGID_7_)" fill="url(#SVGID_8_)" width="21.034" height="26.764"/>
</g>
<g>
	<defs>
		<polygon id="SVGID_9_" points="56.71,248.205 47.081,267.999 52.036,267.999 72.928,241.801 63.972,241.795 		"/>
	</defs>
	<clipPath id="SVGID_10_">
		<use xlink:href="#SVGID_9_"  overflow="visible"/>
	</clipPath>
	
		<linearGradient id="SVGID_11_" gradientUnits="userSpaceOnUse" x1="-0.1226" y1="500.5508" x2="0.8243" y2="500.5508" gradientTransform="matrix(185.6342 0 0 -185.6342 55.375 93174.2109)">
		<stop  offset="0" style="stop-color:#FAD323"/>
		<stop  offset="0.415" style="stop-color:#DF0914"/>
		<stop  offset="1" style="stop-color:#EC7C02"/>
	</linearGradient>
	<rect x="47.081" y="241.796" clip-path="url(#SVGID_10_)" fill="url(#SVGID_11_)" width="25.847" height="26.203"/>
</g>
<g>
	<defs>
		<polygon id="SVGID_12_" points="57.902,267.999 82.927,267.999 91.839,241.813 78.792,241.805 		"/>
	</defs>
	<clipPath id="SVGID_13_">
		<use xlink:href="#SVGID_12_"  overflow="visible"/>
	</clipPath>
	
		<linearGradient id="SVGID_14_" gradientUnits="userSpaceOnUse" x1="-0.123" y1="500.5508" x2="0.8263" y2="500.5508" gradientTransform="matrix(185.6342 0 0 -185.6342 55.375 93174.2109)">
		<stop  offset="0" style="stop-color:#FAD323"/>
		<stop  offset="0.415" style="stop-color:#DF0914"/>
		<stop  offset="1" style="stop-color:#EC7C02"/>
	</linearGradient>
	<rect x="57.902" y="241.805" clip-path="url(#SVGID_13_)" fill="url(#SVGID_14_)" width="33.937" height="26.194"/>
</g>
<g>
	<defs>
		<polygon id="SVGID_15_" points="182.066,264.338 193.513,241.877 157.447,241.854 		"/>
	</defs>
	<clipPath id="SVGID_16_">
		<use xlink:href="#SVGID_15_"  overflow="visible"/>
	</clipPath>
	
		<linearGradient id="SVGID_17_" gradientUnits="userSpaceOnUse" x1="-0.1235" y1="500.5488" x2="0.8263" y2="500.5488" gradientTransform="matrix(185.6342 0 0 -185.6342 55.375 93172.3359)">
		<stop  offset="0" style="stop-color:#FAD323"/>
		<stop  offset="0.415" style="stop-color:#DF0914"/>
		<stop  offset="1" style="stop-color:#EC7C02"/>
	</linearGradient>
	<rect x="157.447" y="241.855" clip-path="url(#SVGID_16_)" fill="url(#SVGID_17_)" width="36.066" height="22.483"/>
</g>
<g>
	<defs>
		<polygon id="SVGID_18_" points="67.378,238.789 75.33,238.789 97.449,211.908 		"/>
	</defs>
	<clipPath id="SVGID_19_">
		<use xlink:href="#SVGID_18_"  overflow="visible"/>
	</clipPath>
	
		<linearGradient id="SVGID_20_" gradientUnits="userSpaceOnUse" x1="-0.1084" y1="500.4844" x2="0.8403" y2="500.4844" gradientTransform="matrix(207.849 0 0 -207.849 51 104250.4922)">
		<stop  offset="0" style="stop-color:#FAD323"/>
		<stop  offset="0.415" style="stop-color:#DF0914"/>
		<stop  offset="1" style="stop-color:#EC7C02"/>
	</linearGradient>
	<rect x="67.378" y="211.908" clip-path="url(#SVGID_19_)" fill="url(#SVGID_20_)" width="30.071" height="26.881"/>
</g>
<g>
	<defs>
		<polygon id="SVGID_21_" points="34.528,297.308 72.951,297.308 81.844,271.179 55.368,271.175 		"/>
	</defs>
	<clipPath id="SVGID_22_">
		<use xlink:href="#SVGID_21_"  overflow="visible"/>
	</clipPath>
	
		<linearGradient id="SVGID_23_" gradientUnits="userSpaceOnUse" x1="-0.123" y1="500.5586" x2="0.826" y2="500.5586" gradientTransform="matrix(185.6342 0 0 -185.6342 55.375 93205.0859)">
		<stop  offset="0" style="stop-color:#FAD323"/>
		<stop  offset="0.415" style="stop-color:#DF0914"/>
		<stop  offset="1" style="stop-color:#EC7C02"/>
	</linearGradient>
	<rect x="34.528" y="271.175" clip-path="url(#SVGID_22_)" fill="url(#SVGID_23_)" width="47.316" height="26.132"/>
</g>
<g>
	<defs>
		<polygon id="SVGID_24_" points="115.621,211.931 133.021,238.789 147.291,238.789 117.883,211.931 		"/>
	</defs>
	<clipPath id="SVGID_25_">
		<use xlink:href="#SVGID_24_"  overflow="visible"/>
	</clipPath>
	
		<linearGradient id="SVGID_26_" gradientUnits="userSpaceOnUse" x1="-0.124" y1="500.541" x2="0.8271" y2="500.541" gradientTransform="matrix(185.6342 0 0 -185.6342 55.375 93143.0859)">
		<stop  offset="0" style="stop-color:#FAD323"/>
		<stop  offset="0.415" style="stop-color:#DF0914"/>
		<stop  offset="1" style="stop-color:#EC7C02"/>
	</linearGradient>
	<rect x="115.621" y="211.931" clip-path="url(#SVGID_25_)" fill="url(#SVGID_26_)" width="31.67" height="26.858"/>
</g>
<g>
	<defs>
		<polygon id="SVGID_27_" points="125.341,297.308 165.469,297.308 148.545,271.185 120.511,271.18 		"/>
	</defs>
	<clipPath id="SVGID_28_">
		<use xlink:href="#SVGID_27_"  overflow="visible"/>
	</clipPath>
	
		<linearGradient id="SVGID_29_" gradientUnits="userSpaceOnUse" x1="-0.1226" y1="500.5586" x2="0.8258" y2="500.5586" gradientTransform="matrix(185.6342 0 0 -185.6342 55.375 93205.0859)">
		<stop  offset="0" style="stop-color:#FAD323"/>
		<stop  offset="0.415" style="stop-color:#DF0914"/>
		<stop  offset="1" style="stop-color:#EC7C02"/>
	</linearGradient>
	<rect x="120.511" y="271.18" clip-path="url(#SVGID_28_)" fill="url(#SVGID_29_)" width="44.958" height="26.127"/>
</g>
<g>
	<defs>
		<polygon id="SVGID_30_" points="119.923,267.999 146.481,267.999 129.531,241.836 115.085,241.827 		"/>
	</defs>
	<clipPath id="SVGID_31_">
		<use xlink:href="#SVGID_30_"  overflow="visible"/>
	</clipPath>
	
		<linearGradient id="SVGID_32_" gradientUnits="userSpaceOnUse" x1="-0.124" y1="500.5498" x2="0.8267" y2="500.5498" gradientTransform="matrix(185.6342 0 0 -185.6342 55.375 93174.2109)">
		<stop  offset="0" style="stop-color:#FAD323"/>
		<stop  offset="0.415" style="stop-color:#DF0914"/>
		<stop  offset="1" style="stop-color:#EC7C02"/>
	</linearGradient>
	<rect x="115.085" y="241.827" clip-path="url(#SVGID_31_)" fill="url(#SVGID_32_)" width="31.396" height="26.172"/>
</g>
<g>
	<defs>
		<polygon id="SVGID_33_" points="87.771,267.999 115.259,267.999 110.421,241.825 96.683,241.817 		"/>
	</defs>
	<clipPath id="SVGID_34_">
		<use xlink:href="#SVGID_33_"  overflow="visible"/>
	</clipPath>
	
		<linearGradient id="SVGID_35_" gradientUnits="userSpaceOnUse" x1="-0.1235" y1="500.5498" x2="0.8263" y2="500.5498" gradientTransform="matrix(185.6342 0 0 -185.6342 55.375 93174.2109)">
		<stop  offset="0" style="stop-color:#FAD323"/>
		<stop  offset="0.415" style="stop-color:#DF0914"/>
		<stop  offset="1" style="stop-color:#EC7C02"/>
	</linearGradient>
	<rect x="87.771" y="241.817" clip-path="url(#SVGID_34_)" fill="url(#SVGID_35_)" width="27.489" height="26.182"/>
</g>
<g>
	<defs>
		<polygon id="SVGID_36_" points="77.796,297.308 120.676,297.308 115.846,271.18 86.688,271.179 		"/>
	</defs>
	<clipPath id="SVGID_37_">
		<use xlink:href="#SVGID_36_"  overflow="visible"/>
	</clipPath>
	
		<linearGradient id="SVGID_38_" gradientUnits="userSpaceOnUse" x1="-0.1235" y1="500.5586" x2="0.8263" y2="500.5586" gradientTransform="matrix(185.6342 0 0 -185.6342 55.375 93205.0859)">
		<stop  offset="0" style="stop-color:#FAD323"/>
		<stop  offset="0.415" style="stop-color:#DF0914"/>
		<stop  offset="1" style="stop-color:#EC7C02"/>
	</linearGradient>
	<rect x="77.796" y="271.179" clip-path="url(#SVGID_37_)" fill="url(#SVGID_38_)" width="42.88" height="26.129"/>
</g>
<g>
	<defs>
		<polygon id="SVGID_39_" points="97.713,238.789 109.859,238.789 105.788,211.908 		"/>
	</defs>
	<clipPath id="SVGID_40_">
		<use xlink:href="#SVGID_39_"  overflow="visible"/>
	</clipPath>
	
		<linearGradient id="SVGID_41_" gradientUnits="userSpaceOnUse" x1="-0.123" y1="500.541" x2="0.8273" y2="500.541" gradientTransform="matrix(185.6342 0 0 -185.6342 55.375 93143.0859)">
		<stop  offset="0" style="stop-color:#FAD323"/>
		<stop  offset="0.415" style="stop-color:#DF0914"/>
		<stop  offset="1" style="stop-color:#EC7C02"/>
	</linearGradient>
	<rect x="97.713" y="211.908" clip-path="url(#SVGID_40_)" fill="url(#SVGID_41_)" width="12.146" height="26.881"/>
</g>
<g>
	<defs>
		<polygon id="SVGID_42_" points="109.521,211.908 114.523,238.789 127.557,238.789 110.119,211.907 		"/>
	</defs>
	<clipPath id="SVGID_43_">
		<use xlink:href="#SVGID_42_"  overflow="visible"/>
	</clipPath>
	
		<linearGradient id="SVGID_44_" gradientUnits="userSpaceOnUse" x1="-0.1221" y1="500.542" x2="0.8253" y2="500.542" gradientTransform="matrix(186.0424 0 0 -186.0424 55.125 93347.2109)">
		<stop  offset="0" style="stop-color:#FAD323"/>
		<stop  offset="0.415" style="stop-color:#DF0914"/>
		<stop  offset="1" style="stop-color:#EC7C02"/>
	</linearGradient>
	<rect x="109.521" y="211.907" clip-path="url(#SVGID_43_)" fill="url(#SVGID_44_)" width="18.037" height="26.882"/>
</g>
<g>
	<defs>
		<polygon id="SVGID_45_" points="38.784,284.614 49.501,271.175 45.39,271.175 		"/>
	</defs>
	<clipPath id="SVGID_46_">
		<use xlink:href="#SVGID_45_"  overflow="visible"/>
	</clipPath>
	
		<linearGradient id="SVGID_47_" gradientUnits="userSpaceOnUse" x1="-0.1226" y1="500.5566" x2="0.8214" y2="500.5566" gradientTransform="matrix(185.6342 0 0 -185.6342 55.375 93198.4609)">
		<stop  offset="0" style="stop-color:#FAD323"/>
		<stop  offset="0.415" style="stop-color:#DF0914"/>
		<stop  offset="1" style="stop-color:#EC7C02"/>
	</linearGradient>
	<rect x="38.784" y="271.175" clip-path="url(#SVGID_46_)" fill="url(#SVGID_47_)" width="10.718" height="13.439"/>
</g>
<g>
	<defs>
		<polygon id="SVGID_48_" points="74.71,211.957 62.595,236.894 90.858,211.947 		"/>
	</defs>
	<clipPath id="SVGID_49_">
		<use xlink:href="#SVGID_48_"  overflow="visible"/>
	</clipPath>
	
		<linearGradient id="SVGID_50_" gradientUnits="userSpaceOnUse" x1="-0.1235" y1="500.541" x2="0.8277" y2="500.541" gradientTransform="matrix(185.6342 0 0 -185.6342 55.375 93142.0859)">
		<stop  offset="0" style="stop-color:#FAD323"/>
		<stop  offset="0.415" style="stop-color:#DF0914"/>
		<stop  offset="1" style="stop-color:#EC7C02"/>
	</linearGradient>
	<rect x="62.595" y="211.947" clip-path="url(#SVGID_49_)" fill="url(#SVGID_50_)" width="28.263" height="24.946"/>
</g>
<g>
	<defs>
		<polygon id="SVGID_51_" points="167.985,292.756 178.978,271.188 154.008,271.185 		"/>
	</defs>
	<clipPath id="SVGID_52_">
		<use xlink:href="#SVGID_51_"  overflow="visible"/>
	</clipPath>
	
		<linearGradient id="SVGID_53_" gradientUnits="userSpaceOnUse" x1="-0.1226" y1="500.5576" x2="0.8257" y2="500.5576" gradientTransform="matrix(185.6342 0 0 -185.6342 55.375 93202.7109)">
		<stop  offset="0" style="stop-color:#FAD323"/>
		<stop  offset="0.415" style="stop-color:#DF0914"/>
		<stop  offset="1" style="stop-color:#EC7C02"/>
	</linearGradient>
	<rect x="154.008" y="271.185" clip-path="url(#SVGID_52_)" fill="url(#SVGID_53_)" width="24.969" height="21.571"/>
</g>
<g>
	<defs>
		<polygon id="SVGID_54_" points="124.68,211.926 154.091,238.789 194.795,238.789 208.707,211.873 		"/>
	</defs>
	<clipPath id="SVGID_55_">
		<use xlink:href="#SVGID_54_"  overflow="visible"/>
	</clipPath>
	
		<linearGradient id="SVGID_56_" gradientUnits="userSpaceOnUse" x1="-0.1235" y1="500.541" x2="0.8263" y2="500.541" gradientTransform="matrix(185.6342 0 0 -185.6342 55.375 93143.0859)">
		<stop  offset="0" style="stop-color:#FAD323"/>
		<stop  offset="0.415" style="stop-color:#DF0914"/>
		<stop  offset="1" style="stop-color:#EC7C02"/>
	</linearGradient>
	<rect x="124.68" y="211.873" clip-path="url(#SVGID_55_)" fill="url(#SVGID_56_)" width="84.027" height="26.916"/>
</g>
</svg>
